<svg xmlns="http://www.w3.org/2000/svg" viewBox="0 0 1500 1500" width="1500" height="1500"><g transform="translate(203.0 447.0) rotate(0.0 459.5 366.0) scale(1.0040720091164057 1.0027658254118943)"><svg width="915.273" height="729.981" viewBox="0 0 915.273 729.981"><g fill="#1e1e1e"><path d="M88.876 727.481h813.492s23.41-642.579 0-669.89C878.958 30.279 35.052-11.769 7.066 7.305c-27.985 19.073 81.81 720.176 81.81 720.176z"/><path d="M902.368 729.981H88.876a2.501 2.501 0 0 1-2.47-2.113c-.275-1.753-27.727-177.334-51.407-352.989-13.91-103.184-23.817-186.21-29.445-246.769C2.208 92.109.355 63.731.047 43.764-.42 13.504 2.621 7.308 5.658 5.239 12.745.409 63.166-1.092 155.522.775c82.404 1.666 189.317 5.85 301.044 11.782 114.909 6.101 221.521 13.375 300.196 20.483 138.587 12.521 145.299 20.351 147.504 22.924 3.707 4.324 8.825 21.237 10.478 117.777.971 56.725.602 133.799-1.098 229.082-2.893 162.205-8.721 323.143-8.78 324.75a2.5 2.5 0 0 1-2.499 2.409zm-811.352-5h808.94c.738-20.709 5.993-170.932 8.691-322.254 5.077-284.658-2.944-337.404-8.177-343.509-2.284-2.664-20.902-10.063-144.158-21.198-78.616-7.103-185.162-14.372-300.011-20.47C217.087 4.85 20.379 1.257 8.474 9.37c-.654.446-3.892 4.195-3.428 34.317.306 19.839 2.152 48.087 5.486 83.96 5.622 60.491 15.521 143.447 29.422 246.564 22.268 165.174 47.871 330.283 51.062 350.77z"/></g></svg></g><g transform="translate(230.0 426.0) rotate(0.0 472.0 376.5) scale(0.9990073422806576 0.9991932145094001)"><svg width="944.938" height="753.608" viewBox="0 0 944.938 753.608"><path d="M91.691 751.108h840.004s24.173-663.52 0-691.722C907.522 31.185 36.113-12.234 7.215 7.461c-28.897 19.695 84.476 743.647 84.476 743.647z" fill="#ffd04d"/><path d="M931.695 753.608H91.691a2.501 2.501 0 0 1-2.47-2.113c-.284-1.81-28.63-183.113-53.083-364.491C-13.529 18.574 1.025 8.655 5.807 5.395 13.11.418 65.157-1.128 160.508.8c85.088 1.72 195.484 6.041 310.852 12.166 118.653 6.299 228.738 13.811 309.976 21.15 143.071 12.926 149.985 20.992 152.258 23.643 3.818 4.455 9.092 21.904 10.799 121.563 1.003 58.573.622 138.158-1.133 236.545-2.987 167.491-9.006 333.673-9.066 335.332a2.5 2.5 0 0 1-2.499 2.409zm-837.863-5h835.451c.751-21.078 6.187-176.388 8.978-332.836 5.243-293.962-3.052-348.445-8.463-354.759-2.365-2.758-21.608-10.416-148.911-21.918-81.179-7.334-191.198-14.84-309.792-21.137C224.07 4.844 20.929 1.141 8.623 9.527c-.681.464-4.055 4.358-3.575 35.503.316 20.487 2.222 49.657 5.665 86.701 5.805 62.463 16.026 148.122 30.381 254.599 23.018 170.746 49.49 341.43 52.738 362.279z" fill="#ffd04d"/><path d="m114.953 721.451 792.461 7.387s18.98-609.265-2.95-634.85S66.691 47.464 40.474 65.332c-26.216 17.868 74.479 656.12 74.479 656.12z" fill="#fff"/><path d="M907.414 731.338h-.024l-792.461-7.387a2.5 2.5 0 0 1-2.446-2.11c-.252-1.596-25.429-161.441-47.079-321.414-12.718-93.975-21.75-169.612-26.843-224.809-9.725-105.381-2.557-110.266.504-112.352 6.662-4.54 55.238-6.926 144.378-7.092 78.764-.147 184.727 1.564 290.706 4.693 111.3 3.286 214.26 7.847 289.915 12.843 133.889 8.842 139.997 15.969 142.296 18.652 3.486 4.067 8.348 20.057 10.314 111.562 1.155 53.747 1.15 126.795-.014 217.116-1.981 153.759-6.702 306.353-6.75 307.876a2.5 2.5 0 0 1-2.499 2.422zm-790.32-12.367 787.896 7.344c.614-20.238 4.83-162.291 6.673-305.346 3.476-269.796-4.208-319.65-9.097-325.354-2.117-2.469-19.881-9.061-138.83-16.916-75.596-4.992-178.492-9.55-289.733-12.835-105.929-3.127-211.832-4.837-290.549-4.691-119.861.223-138.935 4.427-141.572 6.224-.601.41-3.584 3.842-3.235 31.225.231 18.099 1.877 43.849 4.894 76.536 5.087 55.127 14.11 130.693 26.819 224.598 20.298 149.983 43.697 299.854 46.734 319.215z" fill="#fff"/><path d="M30.086 27.857c30.828-11.933 786.95 19.839 905.12 41.491-1.037-5.044-2.203-8.435-3.512-9.962C907.522 31.185 36.113-12.234 7.215 7.461c-3.904 2.661-5.21 18.185-4.551 43.038 7.805-9.455 17.449-18.782 27.422-22.642z" fill="#ffde8a"/><path d="M935.206 71.848c-.15 0-.3-.013-.451-.041-63.204-11.581-300.754-25.177-484.973-33.301C220.759 28.405 44.633 24.907 30.989 30.188l-.902-2.331.902 2.331C22.88 33.327 13.998 40.696 4.593 52.091a2.5 2.5 0 0 1-4.428-1.525C-.784 14.797 2.485 7.659 5.807 5.395 13.11.418 65.157-1.128 160.508.8c85.088 1.72 195.484 6.041 310.852 12.166 118.653 6.299 228.738 13.811 309.976 21.15 143.071 12.926 149.985 20.993 152.257 23.643 1.601 1.868 2.892 5.39 4.063 11.085a2.502 2.502 0 0 1-2.449 3.003zM89.301 22.782c80.01 0 225.892 4.783 360.702 10.728 180.923 7.979 413.309 21.244 481.907 32.723-.958-3.555-1.761-4.809-2.113-5.221-2.365-2.758-21.608-10.416-148.911-21.918-81.179-7.334-191.198-14.84-309.792-21.137C224.07 4.844 20.928 1.141 8.623 9.527c-.699.476-3.961 4.329-3.588 34.407 8.417-9.275 16.521-15.456 24.149-18.409 4.948-1.916 26.846-2.744 60.117-2.744z" fill="#ffde8a"/><path d="M292.871 111.176c5.029-6.242 363.426 9.121 369.582 15.114s2.15 21.545-3.248 27.069c-5.399 5.524-354.805 1.994-360.436-4.807s-10.926-31.134-5.897-37.376z" fill="#aef45d"/><path d="M560.318 158.582c-7.607 0-15.534-.016-23.741-.048-71.1-.278-146.382-1.667-191.791-3.539-45.481-1.875-46.847-3.523-47.943-4.848-6.299-7.607-11.915-33.097-5.918-40.539l1.947 1.569-1.947-1.569c.873-1.083 2.234-1.596 8.406-1.969 25.798-1.557 118.107 1.327 198.144 4.876 43.454 1.927 83.575 4.056 112.974 5.996 51.057 3.368 52.677 4.945 53.749 5.989 2.468 2.403 3.804 6.104 3.861 10.702.089 7.136-2.949 15.693-7.065 19.905-1.043 1.067-2.225 2.276-39.083 2.995-16.313.318-37.314.48-61.591.48zm-259.873-11.937c7.16 2.643 80.183 5.278 178.739 6.434 95.028 1.115 171.138.353 178.514-1.769 2.689-3.014 5.438-9.814 5.36-16.046-.027-2.175-.426-5.109-2.141-6.967-6.889-2.541-85.073-7.512-183.009-11.621-99.003-4.154-175.353-5.612-183.375-3.524-3.435 5.612.896 26.916 5.912 33.494zm357.506 4.582zm-357.737-4.679zM661.1 128.37zm-402.683 72.382c5.996-4.882 447.594 2.488 453.303 9.009 5.709 6.522 4.93 30.944-1.543 36.479-6.474 5.535-446.979-2.214-452.284-9.89s-5.471-30.717.525-35.599z" fill="#aef45d"/><path d="M644.274 250.616c-36.913 0-86.119-.515-138.791-1.454-92.824-1.655-211.769-4.958-241.497-8.824-5.996-.78-7.36-1.421-8.15-2.565-5.81-8.405-6.186-33.106 1.002-38.959 1.129-.92 2.83-2.31 74.14-2.13 41.263.104 97.483.759 154.244 1.798 59.309 1.086 114.069 2.484 154.194 3.937 71.463 2.588 72.972 4.312 74.185 5.697 4.036 4.611 4.84 14.926 4.303 22.359-.289 3.99-1.46 13.698-6.103 17.667-1.142.976-2.868 2.452-66.135 2.474h-1.392zm-384.601-16.108c8.473 3.019 100.201 6.806 224.717 9.258 118.418 2.332 216.272 2.476 224.408.347 2.043-2.048 3.646-7.463 4.119-13.999.565-7.819-.611-15.395-2.812-18.372-8.248-2.599-100.273-5.982-225.371-8.268-118.833-2.171-216.863-2.403-225-.547-4.455 4.377-4.488 24.381-.06 31.582zm449.354 9.536zm1.358-32.201zm-450.39-9.152-.003.003.003-.002z" fill="#aef45d"/><path d="M286.864 377.17c-10.637 0-23.782-7.835-24.429-8.225a2.5 2.5 0 0 1 2.58-4.283c4.625 2.783 18.217 9.463 25.467 6.988.254-.087 2.553-1.231 5.129-14.57 1.73-8.963 3.099-20.715 4.423-32.081 3.871-33.247 6.122-46.804 12.895-46.977 5.955-.152 13.597 12.737 30.87 44.421 6.702 12.292 13.631 25.003 19.683 34.49 9.173 14.381 12.2 14.611 12.51 14.591 3.66-.246 4.322-6.066 4.915-14.918.662-9.889 1.485-22.196 12.242-23.138 10.641-.931 35.493 11.275 57.416 22.044 12.7 6.238 24.694 12.131 29.09 12.894 10.069 1.749 18.722-14.677 18.806-14.844a2.5 2.5 0 1 1 4.458 2.265c-.389.766-9.155 17.713-21.709 17.714-.79 0-1.592-.067-2.41-.209-5.101-.886-16.283-6.379-30.438-13.333-19.211-9.437-45.505-22.362-54.776-21.551-6.038.529-6.964 7.664-7.688 18.49-.625 9.349-1.272 19.016-9.568 19.573-7.61.513-17.557-16.164-36.917-51.677-9.274-17.011-21.927-40.218-26.273-41.769-.499.438-2.241 2.675-4.209 13.417-1.478 8.068-2.667 18.28-3.926 29.093-3.489 29.959-5.979 48.44-12.903 50.804-1.617.552-3.387.788-5.233.788zm26.09-94.155zm272.905 87.135a43.38 43.38 0 0 1-4.403-.223 2.5 2.5 0 1 1 .507-4.974c19.194 1.955 36.77-11.256 52.274-22.912 11.484-8.634 21.402-16.09 30.463-16.308.11-.003.222-.004.33-.004 10.199 0 11.375 11.673 12.324 21.074.947 9.386 1.907 15.541 6.418 15.541h.01c13.957-.028 48.833-13.577 49.184-13.714a2.5 2.5 0 1 1 1.818 4.658c-1.467.573-36.104 14.026-50.992 14.056h-.025c-9.367 0-10.44-10.645-11.388-20.039-1.049-10.4-2.068-16.702-7.559-16.573-7.458.18-17.232 7.528-27.579 15.306-15.1 11.352-32.075 24.113-51.383 24.113zm-404.165 27.069a2.5 2.5 0 0 1-.006-5l606.207-1.526h.006a2.5 2.5 0 0 1 .006 5L181.7 397.219z" fill="#3054e5"/><path d="M103.444 162.072S14.769 315.967 19.031 321.365s44.815-7.76 44.815-7.76 11.03 35.427 17.988 36.529 77.736-169.972 77.736-169.972l-56.126-18.091z" fill="#ffa9d8"/><path d="M82.202 352.683c-.26 0-.508-.039-.759-.079-2.676-.424-6.631-3.104-13.531-20.212-2.498-6.194-4.605-12.381-5.683-15.656-3.66 1.135-11.03 3.348-18.598 5.202-20.185 4.946-24.754 3.269-26.563.977-1.645-2.084-3.693-4.678 40.383-84.429 21.399-38.72 43.605-77.276 43.827-77.661a2.499 2.499 0 0 1 2.933-1.131l56.126 18.091a2.502 2.502 0 0 1 1.543 3.336c-.177.428-17.916 43.278-36.277 85.442-10.791 24.779-19.685 44.482-26.434 58.562-12 25.032-14.88 27.561-16.968 27.561zm-18.356-41.578a2.496 2.496 0 0 1 2.387 1.757c5.265 16.905 12.007 31.927 15.35 34.46 8.267-9.364 49.31-104.496 74.641-165.611l-51.622-16.639c-31.811 55.268-80.739 143.11-83.129 154.923 4.463 1.399 24.506-3.222 41.602-8.767.251-.082.512-.122.771-.122zM20.91 319.73z" fill="#ffa9d8"/><path d="M139.281 182.142s7.912 178.959 15.059 180.091 34.661-37.457 34.661-37.457 31.86 31.453 40.141 28.003c8.281-3.451-30.622-175.646-30.622-175.646l-59.238 5.009z" fill="#ffa9d8"/><path d="M154.681 364.76c-.259 0-.502-.022-.732-.058-3.02-.478-6.443-1.021-12.313-92.78-2.84-44.392-4.832-89.223-4.852-89.67a2.501 2.501 0 0 1 2.287-2.602l59.238-5.009a2.506 2.506 0 0 1 2.649 1.94c.097.431 9.832 43.577 18.429 86.59 17.783 88.97 13.698 90.672 10.716 91.915-3.058 1.274-8.745.938-25.729-13.087-6.25-5.161-12.057-10.579-15.039-13.424-2.537 3.467-7.597 10.269-13.049 16.937-13.35 16.329-18.587 19.249-21.604 19.249zm-12.795-180.33c2.854 63.674 8.865 163.524 13.549 175.155 4.796-1.968 19.733-19.716 31.53-36.261a2.5 2.5 0 0 1 3.792-.327c.079.078 8.009 7.889 16.824 15.166 13.5 11.145 18.488 12.386 20.033 12.39.672-3.031.662-17.869-13.822-89.856-7.31-36.329-15.235-71.965-17.233-80.889l-54.672 4.623z" fill="#ffa9d8"/><ellipse cx="153.747" cy="169.632" fill="#ffd04d" rx="84.195" ry="87.951" transform="matrix(.21320091 -.97700838 .97700838 .21320091 -44.763 283.678)"/><path d="M155.516 256.532a94.943 94.943 0 0 1-20.253-2.199c-23.585-5.147-43.844-18.784-57.044-38.399-13.224-19.65-17.785-42.942-12.843-65.587 4.941-22.645 18.792-41.92 38.999-54.274 20.172-12.333 44.27-16.29 67.856-11.143 23.585 5.147 43.844 18.784 57.044 38.399 13.224 19.65 17.785 42.942 12.843 65.587l-2.442-.533 2.442.533c-4.941 22.645-18.792 41.92-39 54.274-14.404 8.806-30.811 13.342-47.603 13.342zm-3.533-168.8c-15.881 0-31.389 4.285-45 12.607-19.033 11.636-32.075 29.774-36.723 51.074s-.349 43.222 12.106 61.729c12.478 18.541 31.643 31.435 53.963 36.306 22.321 4.871 45.114 1.133 64.181-10.524 19.033-11.636 32.075-29.774 36.723-51.074 4.648-21.3.349-43.222-12.106-61.729-12.478-18.541-31.643-31.435-53.963-36.306a89.93 89.93 0 0 0-19.181-2.083z" fill="#ffd04d"/><ellipse cx="153.747" cy="169.632" fill="#fff" rx="61.051" ry="63.774" transform="matrix(.21320091 -.97700838 .97700838 .21320091 -44.763 283.678)"/><path d="M154.912 233.316c-4.846 0-9.773-.517-14.713-1.595-17.275-3.77-32.116-13.76-41.787-28.131-9.694-14.405-13.038-31.483-9.414-48.088s13.777-30.738 28.592-39.794c14.779-9.035 32.433-11.935 49.708-8.165 35.703 7.791 58.672 41.983 51.201 76.219-6.438 29.499-33.408 49.555-63.586 49.555zm-2.442-122.383c-11.391 0-22.512 3.073-32.273 9.041-13.64 8.339-22.985 21.335-26.315 36.594-3.33 15.26-.249 30.968 8.677 44.23 8.949 13.297 22.694 22.544 38.706 26.038 33.009 7.203 65.462-12.601 72.349-44.141 6.883-31.543-14.373-63.065-47.383-70.268a64.53 64.53 0 0 0-13.761-1.494z" fill="#fff"/><g fill="#aef45d"><path d="M135.06 625.173c2.63-2.94 229.861-3.375 232.454-.494s-3.215 30.718-6.824 34.121-220.47-.755-223.442-3.695c-2.973-2.94-4.817-26.993-2.187-29.932z"/><path d="M320.547 662.576c-19.447 0-44.744-.261-71.861-.745-28.052-.5-55.705-1.204-75.869-1.931-35.573-1.282-36.347-2.048-37.327-3.017-2.53-2.502-3.548-11.448-3.93-16.558-.472-6.311-.57-14.352 1.637-16.819 1.01-1.129 1.678-1.875 40.222-2.58 21.769-.398 50.676-.643 81.397-.689 29.387-.044 56.741.102 77.012.41 35.914.547 36.527 1.229 37.544 2.359.683.759 2.761 3.067-.495 19.036-.739 3.622-3.388 15.667-6.472 18.576-1.025.967-1.994 1.88-37.728 1.953-1.345.003-2.723.004-4.131.004zm-181.747-9.6c6.474 1.203 52.801 2.836 109.977 3.856 58.761 1.048 104.541.969 110.467-.174 2.685-3.754 7.13-24.719 6.396-29.872-16.914-2.224-213.253-1.803-228.857.505-1.272 4.253.099 21.962 2.018 25.685zm-.514-.119zm-2.222-25.425zm230.465-.486zm280.279-4.216c6.928-4.813 218.2.236 222.016 4.78 3.815 4.544 7.574 28.45 3.029 32.654-4.544 4.204-234.727 5.215-237.782-.087s5.81-32.533 12.737-37.346z"/><path d="M744.46 666.191c-47.212 0-94.977-.799-107.62-2.72-2.688-.408-4.189-.853-4.936-2.148-3.85-6.681 5.597-35.172 13.477-40.648 1.079-.749 3.086-2.145 38.486-2.37 20.004-.127 46.701.158 75.171.804 28.107.638 54.596 1.547 74.585 2.561 35.054 1.778 36.148 3.081 37.113 4.23 4.266 5.081 8.886 30.478 2.813 36.097-.985.911-2.21 2.045-36.158 3.053-19.56.581-45.833.97-73.98 1.097-6.249.028-12.597.043-18.953.043zm-108.429-7.928c6.915 1.863 54.32 3.057 117.188 2.92 60.402-.131 111.239-1.481 117.146-3.093 2.513-3.463.27-23.63-3.187-28.619-5.779-1.81-52.176-4.105-109.275-5.384-66.808-1.497-105.659-.745-109.781.776-6.266 4.578-13.251 28.337-12.091 33.4zm12.016-33.37zM337.861 469.746c3.782 2.832 301.104 1.213 303.95-.99s-1.682-18.919-6.372-21.28-299.728-3.169-303.062 0c-3.333 3.169 1.702 19.438 5.484 22.269z"/><path d="M437.701 473.759c-19.214 0-36.625-.054-51.171-.163-48.178-.359-49.145-1.083-50.167-1.849-3.611-2.704-7.164-12.82-7.54-19.204-.192-3.273.407-5.523 1.832-6.878 1.053-1.001 1.884-1.791 49.793-2.357 26.663-.315 63.228-.459 102.955-.405 37.812.051 75.429.281 103.205.632 47.76.603 49.082 1.268 49.956 1.708 4.954 2.493 8.05 13.447 8.537 18.485.341 3.533-.234 5.824-1.758 7.004-.974.754-1.678 1.299-49.655 2.005-27.646.407-65.366.735-103.489.901-18.37.08-36.091.119-52.497.119zm-98.618-6.269c13.983 2.162 281.223 1.273 301.101-.966.597-3.411-2.867-14.887-5.691-16.71-5.625-.961-71.071-1.795-150.21-1.908-81.719-.117-142.463.594-150.332 1.738-.285 1.041-.353 3.977 1.013 8.802 1.336 4.722 3.125 7.979 4.119 9.044zm300.94-.426zm1.016-.668zm-6.371-16.549zm-383.689 78.076c5.826 2.832 461.427 2.342 465.811.139s7.225-19.909 0-22.269c-7.225-2.361-452.451-3.849-457.586-.68s-14.05 19.979-8.225 22.811z"/><path d="M472.311 532.383c-56.402 0-108.123-.152-146.727-.434-73.139-.533-74.741-1.312-75.699-1.777-1.156-.562-3.122-2.033-3.3-5.575-.338-6.717 6.45-18.615 11.304-21.611 1.07-.661 2.402-1.483 73.945-1.935 40.221-.254 95.404-.315 155.383-.171 77.556.186 225.508.956 230.347 2.537 3.519 1.15 5.676 4.705 6.074 10.012.424 5.651-1.33 14.657-5.728 16.867-.881.443-2.089 1.05-74.918 1.572-42.321.304-100.117.491-158.568.513-4.056.002-8.102.002-12.114.002zm-220.367-6.797c7.126 1.108 102.039 1.844 232.297 1.795 123.262-.046 223.943-.781 231.61-1.682 1.173-1.028 3.231-6.379 2.8-11.938-.112-1.44-.584-4.836-2.56-5.565-5.696-1-105.422-2.015-227.632-2.314-129.765-.317-220.927.298-228.203 1.533-3.202 2.306-8.923 12.009-8.676 16.931.032.625.154 1.041.364 1.24zm8.082-18.126z"/></g></svg></g><g transform="translate(646.0 846.0) rotate(0.0 356.5 166.5) scale(1.0016281725834841 1.001615217332455)"><svg width="711.841" height="332.463" viewBox="0 0 711.841 332.463"><g fill="#ffd04d"><path d="M628.897 103.838c-4.855-3.625-263.461 0-263.461 0v-6.607s268.507-11.801 272.978-5.883"/><path d="M628.895 106.338c-.386 0-.775-.089-1.133-.272-8.813-2.373-161.444-1.142-262.29.272a2.498 2.498 0 0 1-2.536-2.5v-6.607a2.5 2.5 0 0 1 2.39-2.498c.671-.03 67.915-2.976 134.84-5.162 39.317-1.284 70.836-2.058 93.682-2.301 44.267-.47 45.431 1.075 46.56 2.57a2.5 2.5 0 0 1-3.524 3.486c-10.227-3.57-165.186 1.759-268.949 6.297v1.68c12.6-.171 70.09-.927 127.392-1.325 131.355-.912 133.677.821 135.064 1.856a2.501 2.501 0 0 1-1.497 4.504zm-1.494-.497.004.003-.004-.003zm9.018-12.987.004.006c0-.002-.002-.004-.004-.006z"/><ellipse cx="650.056" cy="233.635" rx="10.391" ry="13.36" transform="matrix(.23590542 -.97177602 .97177602 .23590542 269.667 810.231)"/><path d="M651.597 246.718c-1.512 0-3.053-.184-4.582-.555-4.005-.972-7.496-3.124-9.83-6.06-2.48-3.12-3.383-6.745-2.542-10.209.84-3.463 3.305-6.271 6.939-7.907 3.42-1.539 7.51-1.85 11.514-.879 4.005.972 7.496 3.124 9.829 6.06 2.48 3.12 3.383 6.745 2.542 10.209-.84 3.463-3.305 6.271-6.939 7.907-2.114.951-4.484 1.434-6.932 1.434zm-3.089-21.167c-1.74 0-3.405.335-4.873.995-2.196.988-3.664 2.596-4.132 4.527-.469 1.931.098 4.033 1.597 5.918 1.645 2.069 4.165 3.601 7.095 4.312 2.93.711 5.871.505 8.282-.579 2.196-.988 3.664-2.596 4.132-4.527.469-1.931-.098-4.033-1.597-5.918-1.645-2.069-4.165-3.601-7.095-4.312a14.487 14.487 0 0 0-3.41-.416z"/><path d="M650.056 233.635c-4.893 0-28.971 47.225-26.065 52.622s17.2 17.237 24.231 17.237 20.794-14.871 24.115-19.022-17.388-50.837-22.281-50.837z"/><path d="M648.222 305.995c-8.189 0-23.292-12.72-26.432-18.552-3.503-6.504 13.91-38.26 17.483-44.243 6.649-11.133 8.973-12.065 10.783-12.065 1.559 0 4.46 0 13.417 18.636 3.459 7.197 6.699 14.967 8.888 21.317 3.858 11.192 3.019 13.583 1.928 14.946-.16.199-16.56 19.96-26.066 19.96zm-21.967-20.808c2.833 5.048 16.232 15.808 21.967 15.808 4.918 0 16.95-11.652 21.977-17.853.852-5.541-14.778-41.434-20.153-46.656-2.109 2.036-7.378 9.875-13.959 23.052-7.327 14.672-10.138 23.755-9.831 25.649zm.013.068zm43.9-1.955zm-20.721-47.292z"/></g><path d="M576.993 329.963H164.612s9.988-167.46 21.522-175.666c5.692-4.049 146.221-27.749 179.679-27.752 33.456-.002 170.314 29.702 176.987 36.759 13.173 13.931 34.194 166.659 34.194 166.659z" fill="#3054e5"/><path d="M576.993 332.463H164.612a2.5 2.5 0 0 1-2.496-2.649c.025-.419 2.544-42.396 6.441-84.835 7.982-86.925 13.69-90.985 16.127-92.719 6.678-4.751 149.68-28.213 181.128-28.215 32.141-.002 170.839 29.119 178.803 37.541 13.339 14.107 32.691 152.322 34.854 168.036a2.498 2.498 0 0 1-2.476 2.841zm-409.722-5h406.853c-8.5-61.116-24.022-152.798-33.14-162.441-6.368-5.797-139.556-35.979-175.17-35.977-33.524.002-171.243 23.395-178.3 27.335-1.41 1.09-6.808 10.9-13.999 89.306-3.316 36.159-5.628 71.928-6.243 81.777z" fill="#3054e5"/><path d="M2.5 139.878c0 15.813 335.615 77.126 355.218 77.126s344.428-47.347 351.512-62.95C716.313 138.451 385.901 2.423 360.092 2.5 335.487 2.574 2.5 124.065 2.5 139.878z" fill="#3054e5"/><path d="M357.718 219.504c-10.067 0-97.62-15.081-185.451-32.682-48.144-9.648-88.819-18.568-117.629-25.797-16.689-4.188-29.641-7.865-38.496-10.93C2.7 145.442 0 142.736 0 139.878c0-2.69 0-7.191 53.924-30.422 29.404-12.668 71.051-29.185 117.267-46.51C253.65 32.036 346.85.04 360.085 0h.023C385.735 0 695.454 126.792 710.9 150.689c1.264 1.955 1.027 3.471.605 4.399-1.042 2.294-2.98 6.565-56.92 17.832-28.686 5.992-68.803 13.229-116.015 20.928-83.251 13.577-170.481 25.656-180.853 25.656zM5.256 139.781c1.872 1.704 11.069 6.667 55.401 17.588 29.234 7.202 69.651 15.988 116.88 25.408 84.173 16.789 170.873 31.727 180.18 31.727 8.99 0 92.413-11.332 178.229-25.295 117.918-19.186 165.271-31.034 170.713-35.91-1.183-1.842-8.418-8.857-52.16-30.054-28.944-14.026-69.317-32.047-113.682-50.744C452.472 35.27 371.445 5 360.119 5h-.019c-10.931.033-93.364 27.557-183.757 61.356-45.465 17-86.899 33.363-116.667 46.074-44.007 18.79-52.741 25.339-54.419 27.352zm-.319.474z" fill="#3054e5"/><path d="M365.06 168.451c17.526.922 192.426 44.096 192.426 44.096-4.779-25.403-10.576-44.894-14.688-49.243-6.673-7.057-143.531-36.761-176.987-36.759-33.457.002-173.987 23.702-179.679 27.752-3.235 2.302-6.349 17.135-9.155 37.287s172.49-23.952 188.081-23.132z" fill="#2043b7"/><path d="M557.487 215.047c-.2 0-.401-.024-.599-.073-1.747-.431-174.868-43.127-191.958-44.026-15.204-.81-185.884 22.872-187.606 23.112a2.498 2.498 0 0 1-2.82-2.821c4.321-31.039 7.572-37.122 10.182-38.979 6.678-4.751 149.68-28.213 181.128-28.215 32.141-.002 170.839 29.119 178.803 37.542 5.364 5.672 11.435 29.805 15.328 50.498a2.5 2.5 0 0 1-2.457 2.962zm-193.258-49.114c.368 0 .687.007.963.021 16.325.859 162.82 36.764 189.103 43.231-5.125-26.066-10.432-41.118-13.312-44.164-6.368-5.797-139.556-35.979-175.17-35.977-33.524.002-171.242 23.395-178.3 27.335-.501.393-3.476 3.99-7.591 32.272 24.155-3.339 165.173-22.719 184.308-22.719z" fill="#2043b7"/><path d="M638.414 91.348c5.566 6.284 18.672 134.123 18.672 134.123l-12.969-.742S632.201 96.82 628.896 91.348h9.517z" fill="#ffd04d"/><path d="M657.086 227.971c-.047 0-.095-.001-.143-.004l-12.969-.742a2.5 2.5 0 0 1-2.346-2.264c-4.689-50.342-12.533-127.147-14.918-132.406-.466-.772-.457-1.693-.014-2.478.443-.786 1.299-1.229 2.201-1.229h9.517c.716 0 1.397.307 1.872.842 1.195 1.35 3.996 4.511 12.034 70.775 3.93 32.394 7.221 64.431 7.254 64.751a2.5 2.5 0 0 1-2.487 2.755zm-10.679-5.615 7.892.452c-4.836-46.722-13.366-118.731-17.363-128.959h-4.827c3.856 18.924 11.556 99.168 14.299 128.508z" fill="#ffd04d"/></svg></g><g transform="translate(143.0 969.0) rotate(0.0 45.0 65.0) scale(1.14585455286209 1.1452230982689513)"><svg width="78.544" height="113.515" viewBox="0 0 78.544 113.515"><g fill="#FFDE8A"><path d="M40.481 110.573c-8.009-3.813-3.885-15.118-12.541-34.6C23.92 66.928 2.5 66.717 2.5 60.767S19.863 53.32 23.925 42.94C27.71 33.269 22.873 2.5 30.813 2.5c7.62 0 13.432 23.516 18.443 35.225 4.126 9.641 26.788-5.408 26.788 2.539 0 7.28-16.653 19.689-20.455 32.849-5.961 20.627-7.272 41.192-15.108 37.46z"/><path d="M42.24 113.514a6.544 6.544 0 0 1-2.834-.684c-5.513-2.624-6.475-7.99-7.692-14.784a84.338 84.338 0 0 0-6.058-21.056c-1.69-3.8-8.44-6.008-13.863-7.778C5.465 67.145 0 65.361 0 60.767c0-4.277 4.545-6.517 9.358-8.889 4.869-2.4 10.388-5.12 12.239-9.849 1.362-3.479 1.485-10.714 1.6-17.711C23.424 11.269 23.615 0 30.813 0c7.477 0 12.039 12.837 16.869 26.428 1.362 3.833 2.649 7.454 3.872 10.313 1.269 2.965 6.814 1.81 13.387.117 5.208-1.339 9.32-2.4 11.87-.419a4.6 4.6 0 0 1 1.733 3.825c0 4.39-3.893 9.133-8.822 15.138-4.639 5.653-9.9 12.06-11.732 18.405-1.637 5.667-2.944 11.441-4.1 16.535-2.779 12.271-4.614 20.378-9.211 22.608a5.553 5.553 0 0 1-2.439.564zM30.813 5c-.218 0-1.16.8-1.8 4.743A115.807 115.807 0 0 0 28.2 24.4c-.132 7.781-.257 15.132-1.947 19.448-2.553 6.538-9.282 9.852-14.685 12.515C8.952 57.652 5 59.6 5 60.767c.413 1.1 5.379 2.723 8.345 3.692 6.7 2.186 14.287 4.664 16.88 10.5a89.847 89.847 0 0 1 6.41 22.2c1.2 6.68 1.855 9.694 4.92 11.153.619.294.837.187.943.136 2.434-1.181 4.6-10.762 6.517-19.215 1.169-5.161 2.494-11.01 4.172-16.818 2.119-7.334 7.725-14.163 12.67-20.189 3.734-4.549 7.593-9.25 7.686-11.872-1.308-.2-4.91.714-7.357 1.343-6.823 1.755-16.169 4.158-19.228-2.993-1.286-3-2.6-6.7-3.988-10.607C39.9 19.461 34.761 5 30.813 5z"/></g></svg></g><g transform="translate(1192.0 771.0) rotate(0.0 26.5 38.5) scale(0.6747810144632308 0.678324450513148)"><svg width="78.544" height="113.515" viewBox="0 0 78.544 113.515"><g fill="#FFD2ED"><path d="M40.481 110.573c-8.009-3.813-3.885-15.118-12.541-34.6C23.92 66.928 2.5 66.717 2.5 60.767S19.863 53.32 23.925 42.94C27.71 33.269 22.873 2.5 30.813 2.5c7.62 0 13.432 23.516 18.443 35.225 4.126 9.641 26.788-5.408 26.788 2.539 0 7.28-16.653 19.689-20.455 32.849-5.961 20.627-7.272 41.192-15.108 37.46z"/><path d="M42.24 113.514a6.544 6.544 0 0 1-2.834-.684c-5.513-2.624-6.475-7.99-7.692-14.784a84.338 84.338 0 0 0-6.058-21.056c-1.69-3.8-8.44-6.008-13.863-7.778C5.465 67.145 0 65.361 0 60.767c0-4.277 4.545-6.517 9.358-8.889 4.869-2.4 10.388-5.12 12.239-9.849 1.362-3.479 1.485-10.714 1.6-17.711C23.424 11.269 23.615 0 30.813 0c7.477 0 12.039 12.837 16.869 26.428 1.362 3.833 2.649 7.454 3.872 10.313 1.269 2.965 6.814 1.81 13.387.117 5.208-1.339 9.32-2.4 11.87-.419a4.6 4.6 0 0 1 1.733 3.825c0 4.39-3.893 9.133-8.822 15.138-4.639 5.653-9.9 12.06-11.732 18.405-1.637 5.667-2.944 11.441-4.1 16.535-2.779 12.271-4.614 20.378-9.211 22.608a5.553 5.553 0 0 1-2.439.564zM30.813 5c-.218 0-1.16.8-1.8 4.743A115.807 115.807 0 0 0 28.2 24.4c-.132 7.781-.257 15.132-1.947 19.448-2.553 6.538-9.282 9.852-14.685 12.515C8.952 57.652 5 59.6 5 60.767c.413 1.1 5.379 2.723 8.345 3.692 6.7 2.186 14.287 4.664 16.88 10.5a89.847 89.847 0 0 1 6.41 22.2c1.2 6.68 1.855 9.694 4.92 11.153.619.294.837.187.943.136 2.434-1.181 4.6-10.762 6.517-19.215 1.169-5.161 2.494-11.01 4.172-16.818 2.119-7.334 7.725-14.163 12.67-20.189 3.734-4.549 7.593-9.25 7.686-11.872-1.308-.2-4.91.714-7.357 1.343-6.823 1.755-16.169 4.158-19.228-2.993-1.286-3-2.6-6.7-3.988-10.607C39.9 19.461 34.761 5 30.813 5z"/></g></svg></g><g transform="translate(1217.0 664.0) rotate(0.0 47.0 51.0) scale(0.9178791133678352 0.9261613336723205)"><svg width="102.41" height="110.132" viewBox="0 0 102.41 110.132"><g fill="#668BFF"><path d="M44.088 2.5c10.051 0 9.095 18 20.107 40.789C72.443 60.36 99.91 49.98 99.91 57.045s-22.29 8.682-29.532 19.761c-9.661 14.779-9.744 30.826-19.173 30.826-9.048 0-10.934-17.119-16.884-31.023C29.422 65.161 2.5 70.269 2.5 60.832c0-8.645 27.141-5.569 30.1-21.565C36.788 16.6 33.781 2.5 44.088 2.5z"/><path d="M51.205 110.132c-8.273 0-11.483-9.948-14.882-20.479-1.3-4.021-2.639-8.178-4.3-12.06-1.989-4.649-9.705-6.045-16.513-7.279C7.885 68.934 0 67.506 0 60.832c0-5.571 6.205-7.48 12.775-9.5 7.479-2.3 15.957-4.906 17.364-12.52 1.241-6.712 1.834-12.584 2.356-17.764C33.728 8.829 34.619 0 44.088 0c7.989 0 10.392 7.921 13.719 18.885A154.185 154.185 0 0 0 66.446 42.2c4.342 8.986 15.04 9.2 23.636 9.372 6.34.127 12.328.247 12.328 5.472 0 5.089-6 7.558-12.943 10.418-6.41 2.64-13.676 5.633-17 10.711-3.654 5.59-5.89 11.385-7.863 16.5-3.198 8.296-5.962 15.459-13.399 15.459zM44.088 5C39.626 5 38.8 8.35 37.47 21.551c-.506 5.015-1.135 11.257-2.414 18.171C33.1 50.315 22.2 53.666 14.244 56.112 9.911 57.444 5 58.954 5 60.832c0 2.5 5.8 3.548 11.4 4.562 8.05 1.458 17.172 3.106 20.22 10.232 1.752 4.094 3.129 8.363 4.462 12.492 2.823 8.749 5.49 17.014 10.123 17.014 3.828 0 5.629-4.2 8.736-12.258 2.063-5.346 4.4-11.4 8.344-17.437 4.168-6.375 12.547-9.825 19.279-12.6 4-1.648 9.427-3.882 9.823-5.6-1.09-.541-4.714-.613-7.405-.668-8.9-.178-22.361-.446-28.038-12.195a158.318 158.318 0 0 1-8.922-24.04C49.879 9.978 48.187 5 44.088 5z"/></g></svg></g></svg>