<svg height="836.546" viewBox="0 0 1039.906 836.546" width="1039.906" xmlns="http://www.w3.org/2000/svg"><path d="m42.927 544.437c-34.412-36.446 10.62-249.671 27.011-271.2 23.853-31.337 627.717-202.272 677.062-199.589 64.306 3.5 185.351 244.115 171.19 295.543-8.376 30.421-138.65-230.363-168.09-238.522s-616.491 164.757-634 181.219-44.891 262.501-73.173 232.549z" fill="#ffd04d"/><path d="m47.778 549.461c-1.913 0-4.253-.75-6.668-3.308-20.679-21.9-12.761-99.169-6.2-143.279 8.641-58.1 24.08-119.383 33.041-131.156 2.194-2.882 8.87-11.651 110.108-45.638 57.161-19.188 135.348-43.266 220.158-67.8 149.683-43.3 322.842-88.514 348.922-87.131 25.144 1.366 55.081 35.91 75.766 64.647 51.7 71.821 108.062 196.421 97.7 234.056-.918 3.333-3.032 4.1-4.211 4.26-4.621.619-11.675-5-31.074-34.5-13.631-20.731-30.131-48.348-47.6-77.587-35.067-58.692-74.813-125.215-88.28-128.948-12.092-3.336-140.736 29.346-320.109 81.369-164.21 47.624-303.953 92.154-311.516 99.263-6.274 5.9-15.2 50.3-23.829 93.237-16.186 80.505-28.819 137.832-44.122 142.218a7.561 7.561 0 0 1 -2.086.297zm697.922-473.345c-25.978 0-173.313 36.99-346.1 86.969-186.134 53.843-317.818 98.715-327.673 111.663-16.227 21.325-60.01 233.204-27.182 267.972 2.014 2.134 3.269 1.772 3.741 1.638 3.924-1.125 10.631-10.055 20.3-46.207 7.1-26.529 13.806-59.909 20.3-92.191 11.079-55.12 18.229-89.24 25.306-95.893 10.708-10.067 193.372-65.567 313.542-100.423 50.3-14.59 302.285-87.077 322.837-81.384 14.324 3.971 45.425 54.526 91.236 131.2 17.276 28.916 33.6 56.228 47.1 76.81 19.169 29.221 24.945 32.643 26.448 32.874a3.093 3.093 0 0 0 .23-.618c9.031-32.8-41.7-153.072-96.936-229.807-28.339-39.37-53.9-61.594-71.98-62.576-.358-.019-.748-.027-1.169-.027z" fill="#ffd04d"/><path d="m116.1 311.888c22.943-21.862 608.4-206.3 640.328-198.111s271.937 381.4 280.638 476.266c7.534 82.149-113.686 243.811-113.686 243.811h-810.042s-95.838-76.193-109.582-111.271 89.403-388.833 112.344-410.695z" fill="#3054e5"/><path d="m923.38 836.354h-810.042a2.506 2.506 0 0 1 -1.556-.543c-3.934-3.128-96.522-77.018-110.354-112.311-7.46-19.041 16.978-121.944 42.336-211.9 25.711-91.207 58.223-189.716 70.614-201.524 12.575-11.983 173.54-65.888 317.775-110.9 138.863-43.338 307.271-92.327 324.9-87.821 18.361 4.712 91.265 110.036 150.538 206.745 29.531 48.182 126.324 210.171 131.969 271.715 3.173 34.595-15.111 86.473-54.345 154.193a1045.8 1045.8 0 0 1 -59.833 91.346 2.5 2.5 0 0 1 -2.002 1zm-809.164-5h807.905c10.14-13.751 119.514-164.157 112.457-241.082-3.742-40.805-52.808-141.575-131.252-269.56-32.143-52.444-65.111-102.5-92.83-140.941-40.667-56.4-52.14-62.919-54.688-63.572-13.236-3.414-145.724 32.685-322.166 87.75-170.091 53.083-305.862 100.265-315.815 109.751l-1.725-1.81 1.725 1.81c-10.195 9.714-39.966 95.378-69.25 199.26-31.588 112.052-48.268 193.977-42.494 208.711 12.745 32.523 99.531 102.777 108.133 109.683z" fill="#3054e5"/><ellipse cx="402.837" cy="41.082" fill="#ffd04d" rx="37.125" ry="39.985" transform="matrix(.70710678 -.70710678 .70710678 .70710678 88.939 296.881)"/><path d="m405.707 82.143a43.834 43.834 0 0 1 -30.889-13.043c-16.565-16.565-17.472-42.61-2.022-58.061s41.5-14.543 58.06 2.023 17.471 42.61 2.022 58.06a38.092 38.092 0 0 1 -27.171 11.021zm-5.74-77.128a33.107 33.107 0 0 0 -23.636 9.561c-13.5 13.5-12.593 36.375 2.022 50.99s37.489 15.52 50.99 2.022 12.593-36.375-2.022-50.99a38.864 38.864 0 0 0 -27.354-11.583z" fill="#ffd04d"/><ellipse cx="343.571" cy="62.497" fill="#ffd04d" rx="44.132" ry="40.976" transform="matrix(.28081747 -.95976119 .95976119 .28081747 187.11 374.693)"/><path d="m341.993 108.909a40.928 40.928 0 0 1 -11.517-1.657 41.761 41.761 0 0 1 -25.713-21.823 48.1 48.1 0 0 1 -2.919-35.142c7.22-24.677 31.813-39.278 54.822-32.546s35.852 32.287 28.634 56.964a48.112 48.112 0 0 1 -21.4 28.026 42.67 42.67 0 0 1 -21.907 6.178zm3.234-87.809c-17.052 0-33.192 12.162-38.585 30.592a43.121 43.121 0 0 0 2.593 31.5 36.441 36.441 0 0 0 52.1 15.244 43.127 43.127 0 0 0 19.165-25.136c6.446-22.032-4.875-44.8-25.238-50.762a35.712 35.712 0 0 0 -10.035-1.438z" fill="#ffd04d"/><path d="m348.936 77.207-31.459 112.638-121.129 34.006s-1.5-14.339 6.018-22.641 87.4-25.058 95.966-34.5 39.873-104.21 39.873-104.21z" fill="#ffd04d"/><path d="m196.348 226.351a2.5 2.5 0 0 1 -2.486-2.24c-.066-.631-1.521-15.553 6.65-24.579 3.915-4.325 20.277-9.252 46.647-16.934 20.216-5.889 45.375-13.218 49.322-17.564 6.737-7.42 30.69-77.1 39.35-103.322a2.5 2.5 0 0 1 4.394-.689l10.73 14.71a2.5 2.5 0 0 1 .389 2.146l-31.459 112.639a2.5 2.5 0 0 1 -1.732 1.734l-121.129 34.006a2.477 2.477 0 0 1 -.676.093zm142.7-158.458c-6.849 20.532-31 91.841-38.864 100.5-4.554 5.015-23.4 10.781-51.625 19-18.344 5.343-41.175 11.994-44.339 15.488-4.729 5.224-5.47 13.343-5.493 17.7l116.721-32.768 30.752-110.113z" fill="#ffd04d"/><path d="m410.138 58.031 82.619 82.6 112.82-31.674s10.446-20.857 3.458-24.357-101.9 33.68-111.669 29.56-80.346-68.542-80.346-68.542z" fill="#ffd04d"/><path d="m492.757 143.136a2.5 2.5 0 0 1 -1.767-.732l-82.62-82.604a2.5 2.5 0 0 1 -.419-2.979l6.883-12.413a2.5 2.5 0 0 1 3.872-.635c28.242 25.781 72.755 65.188 79.631 68.089 4.447 1.779 37.674-8.973 59.664-16.086 34.8-11.257 48.309-15.329 52.153-13.406 4.154 2.081 4.881 7.619 2.162 16.461a82.3 82.3 0 0 1 -4.5 11.252 2.5 2.5 0 0 1 -1.56 1.288l-112.82 31.674a2.482 2.482 0 0 1 -.679.091zm-79.519-85.536 80.252 80.238 110.334-30.975c4.074-8.5 6.645-18.473 4.181-19.969-3.925-.762-28.611 7.22-48.465 13.643-35.539 11.5-57.522 18.3-63.146 15.935-9.184-3.874-65.066-54.446-78.72-66.872z" fill="#ffd04d"/><ellipse cx="406.531" cy="22.915" fill="#ffde8a" rx="15.458" ry="16.648" transform="matrix(.70710678 -.70710678 .70710678 .70710678 102.867 294.172)"/><path d="m407.739 41.48q-.352 0-.706-.014a20.067 20.067 0 0 1 -19.054-19.054 17.188 17.188 0 0 1 18.049-18.048 19.7 19.7 0 0 1 13.2 5.853 19.694 19.694 0 0 1 5.853 13.2 17.175 17.175 0 0 1 -17.342 18.063zm-2.409-32.13a12.178 12.178 0 0 0 -12.355 12.877 15.073 15.073 0 0 0 14.244 14.243 12.192 12.192 0 0 0 12.867-12.87 14.725 14.725 0 0 0 -4.392-9.851 14.716 14.716 0 0 0 -9.851-4.392c-.172-.003-.343-.007-.513-.007z" fill="#ffde8a"/><ellipse cx="334.626" cy="48.757" fill="#ffde8a" rx="23.016" ry="21.37" transform="matrix(.28081747 -.95976119 .95976119 .28081747 193.864 356.228)"/><path d="m333.757 74.15a22.373 22.373 0 0 1 -6.3-.9c-12.632-3.7-19.695-17.688-15.744-31.192s17.439-21.481 30.075-17.786 19.7 17.688 15.744 31.192c-3.293 11.265-13.232 18.686-23.775 18.686zm1.731-45.786c-8.375 0-16.313 6-18.973 15.094-3.176 10.858 2.364 22.068 12.35 24.99s20.7-3.535 23.873-14.392-2.364-22.067-12.351-24.989a17.4 17.4 0 0 0 -4.899-.703z" fill="#ffde8a"/><path d="m788.1 98.016c-16.312-15.984-30.115-23.771-41.1-24.368-20.828-1.132-140.44 28.664-273.532 65.839 84.691-4.849 228.05-44.53 248.239-46.36 24.953-2.263 48.967-1.391 66.393 4.889z" fill="#ffde8a"/><path d="m473.468 141.988a2.5 2.5 0 0 1 -.671-4.909c111.76-31.216 250.672-67.2 274.34-65.927 12.027.653 26.4 9.09 42.709 25.079a2.5 2.5 0 0 1 -2.6 4.136c-15.48-5.579-38.065-7.222-65.316-4.75-5.987.542-24.244 4.77-47.359 10.124-53.069 12.29-141.892 32.86-200.961 36.243-.046.003-.094.004-.142.004zm272.261-65.872c-20.255 0-116.389 22.953-244.9 58.375 56.332-6.691 127.461-23.164 172.621-33.622 24.212-5.607 41.706-9.659 48.035-10.233 22.5-2.038 41.989-1.313 57.166 2.078-12.11-10.4-22.984-16.092-31.783-16.57-.349-.019-.73-.028-1.139-.028z" fill="#ffde8a"/><g fill="#ffa9d8"><path d="m199.769 621.584c-5.657-21.622-1.484-32.87 14.4-38.825 11.612-4.352 19.8-.474 24.631 3.545 8.544 7.114 13.1 20 11.084 31.324-1.249 7-5.5 16.333-18.674 21.015a8.614 8.614 0 1 0 5.769 16.233c16.124-5.732 27.009-18.206 29.865-34.226 3.1-17.4-3.738-36.527-17.021-47.586-11.786-9.812-26.595-12.1-41.7-6.436-24.5 9.182-32.917 29.139-25.022 59.317 4.95 18.918-1.494 32.166-19.153 39.375-17.422 7.112-29.289-3.94-34.2-15.635l-.071-.17c-5.661-13.668-3.248-30.926 12.318-37.467a8.614 8.614 0 1 0 -6.674-15.882c-25.664 10.783-30.262 38.931-21.561 59.941l.108.258c4.458 10.609 11.963 19.1 21.157 23.934 10.816 5.684 23.07 6.02 35.437.971 25.793-10.531 36.476-32.285 29.307-59.686z"/><path d="m335.839 652.094c-11.785-9.812-26.594-12.1-41.7-6.437-24.5 9.182-32.917 29.139-25.022 59.318 4.949 18.918-1.494 32.165-19.153 39.375-17.422 7.112-29.29-3.941-34.2-15.636l-.071-.17c-5.661-13.668-3.248-30.926 12.318-37.467a8.614 8.614 0 1 0 -6.674-15.882c-25.664 10.783-30.263 38.931-21.561 59.942l.108.257c4.458 10.609 11.963 19.1 21.157 23.935 10.816 5.684 23.07 6.019 35.437.971 25.8-10.531 36.479-32.286 29.31-59.686-5.657-21.623-1.485-32.871 14.4-38.825 11.612-4.352 19.8-.475 24.631 3.544 8.544 7.114 13.1 20 11.084 31.324-1.249 7-5.5 16.333-18.675 21.016a8.614 8.614 0 1 0 5.772 16.232c16.124-5.731 27.009-18.206 29.864-34.225 3.099-17.404-3.742-36.528-17.025-47.586z"/><path d="m569.982 692.325c-19.091 4.236-32.087-2.7-38.627-20.621-6.452-17.677 5.039-29.12 16.911-33.59l.173-.065c13.871-5.143 31.026-2.082 36.976 13.718a8.614 8.614 0 0 0 16.123-6.071c-9.811-26.052-37.766-31.706-59.088-23.8l-.262.1c-10.769 4.055-19.539 11.235-24.713 20.241-6.087 10.594-6.884 22.827-2.3 35.375 9.553 26.174 30.891 37.668 58.541 31.535 21.82-4.84 32.9-.247 38.256 15.852 3.912 11.767-.271 19.807-4.468 24.48-7.431 8.27-20.474 12.341-31.719 9.9-6.951-1.511-16.115-6.113-20.3-19.452a8.614 8.614 0 1 0 -16.438 5.155c5.121 16.329 17.177 27.675 33.077 31.131 17.274 3.755 36.643-2.361 48.193-15.219 10.249-11.408 13.09-26.12 8-41.428-8.255-24.831-27.882-33.995-58.335-27.241z"/><path d="m473.273 822.9a8.614 8.614 0 0 0 -16.438 5.156 50.975 50.975 0 0 0 3.517 8.487h21.442a29.083 29.083 0 0 1 -8.521-13.643z"/><path d="m546.106 802.542c-8.254-24.826-27.88-33.99-58.334-27.236-19.091 4.235-32.086-2.7-38.626-20.621-6.452-17.677 5.039-29.12 16.911-33.59l.173-.066c13.871-5.142 31.026-2.081 36.976 13.719a8.614 8.614 0 0 0 16.123-6.071c-9.811-26.052-37.766-31.706-59.089-23.8l-.261.1c-10.77 4.056-19.54 11.237-24.713 20.242-6.087 10.594-6.884 22.827-2.3 35.375 9.553 26.174 30.89 37.668 58.541 31.535 21.82-4.84 32.9-.247 38.256 15.851 3.912 11.768-.271 19.807-4.469 24.481a28.821 28.821 0 0 1 -4.585 4.088h22.753c5.707-10.057 6.689-21.841 2.644-34.007z"/><path d="m658.9 464.16a8.616 8.616 0 0 0 12.16-.73c11.353-12.8 14.863-28.984 9.629-44.391-5.689-16.739-20.912-30.184-37.889-33.455-15.058-2.9-29.131 2.245-39.626 14.5-17.02 19.869-14.758 41.411 6.725 64.027 13.469 14.177 14.221 28.89 2.237 43.729-11.823 14.64-27.552 10.69-37.5 2.821l-.145-.114c-11.556-9.237-17.775-25.516-7.3-38.759a8.614 8.614 0 0 0 -13.51-10.688c-17.268 21.834-7.706 48.7 10.058 62.9l.219.174c9.026 7.138 19.7 10.953 30.083 10.745 12.216-.244 23.109-5.866 31.5-16.258 17.507-21.677 16.359-45.885-3.148-66.42-15.393-16.2-17.17-28.069-6.133-40.953 8.068-9.417 17.114-9.977 23.282-8.788 10.917 2.106 21.128 11.185 24.829 22.08 2.288 6.736 3.068 16.96-6.207 27.42a8.613 8.613 0 0 0 .736 12.16z"/><path d="m739.024 546.342c17.507-21.676 16.359-45.884-3.148-66.419-15.393-16.2-17.17-28.07-6.133-40.953 8.068-9.418 17.114-9.977 23.282-8.788 10.917 2.1 21.127 11.184 24.829 22.08 2.287 6.735 3.068 16.959-6.208 27.42a8.614 8.614 0 0 0 12.891 11.43c11.353-12.8 14.863-28.984 9.629-44.391-5.686-16.739-20.909-30.184-37.88-33.455-15.058-2.9-29.131 2.245-39.626 14.5-17.021 19.868-14.759 41.41 6.725 64.026 13.469 14.178 14.221 28.891 2.237 43.73-11.823 14.639-27.552 10.689-37.5 2.82l-.145-.114c-11.556-9.237-17.775-25.516-7.3-38.758a8.614 8.614 0 1 0 -13.512-10.687c-17.269 21.834-7.706 48.7 10.058 62.9l.219.174c9.026 7.139 19.7 10.953 30.083 10.746 12.213-.247 23.106-5.868 31.499-16.261z"/><path d="m875.8 829.636c4.594-10.55 5.553-21.844 2.7-31.83-3.359-11.747-11.579-20.842-23.771-26.3-25.432-11.383-48.543-4.085-63.408 20.024-11.73 19.024-22.746 23.775-38.024 16.4-11.167-5.392-14.021-13.994-14.448-20.261-.756-11.093 5.411-23.285 15-29.649 5.927-3.934 15.612-7.3 28.1-1.009a8.614 8.614 0 0 0 7.756-15.384c-15.282-7.7-31.821-6.959-45.378 2.039-14.729 9.776-23.835 27.931-22.659 45.175 1.043 15.3 9.618 27.588 24.145 34.6 23.56 11.375 43.808 3.681 60.18-22.871 10.262-16.646 24.294-21.134 41.7-13.342 17.176 7.687 17.378 23.9 12.315 35.533l-.074.17a35.283 35.283 0 0 1 -10.472 13.611h22.692a52.874 52.874 0 0 0 3.54-6.653z"/><path d="m852.477 654.721c-25.432-11.383-48.542-4.084-63.407 20.024-11.731 19.025-22.747 23.776-38.024 16.4-11.167-5.392-14.021-13.994-14.448-20.261-.756-11.092 5.41-23.285 15-29.649 5.927-3.933 15.612-7.3 28.1-1.009a8.614 8.614 0 0 0 7.754-15.384c-15.281-7.7-31.821-6.959-45.377 2.04-14.73 9.776-23.835 27.931-22.659 45.175 1.043 15.3 9.618 27.588 24.145 34.6 23.56 11.376 43.807 3.681 60.18-22.871 10.263-16.645 24.294-21.134 41.7-13.342 17.175 7.687 17.378 23.9 12.314 35.534l-.074.169c-5.975 13.534-20.122 23.708-35.6 16.968a8.614 8.614 0 0 0 -6.877 15.8c25.523 11.112 49.056-5 58.241-25.806l.111-.256c4.594-10.551 5.554-21.845 2.7-31.831-3.366-11.75-11.586-20.844-23.779-26.301z"/><path d="m115.171 332.581a8.614 8.614 0 0 0 9.529 14.352c14.256-9.466 21.8-24.2 20.687-40.439a48.763 48.763 0 0 0 -1.905-10.473c-6.241 2.485-11.629 4.737-16.043 6.719a31.042 31.042 0 0 1 .761 4.929c.485 7.096-1.382 17.179-13.029 24.912z"/><path d="m134.527 452.138c11.87 2.9 23.841.254 34.617-7.64 22.478-16.464 27.574-40.158 13.983-65.007-10.725-19.609-9.4-31.533 4.57-41.157 10.213-7.034 19.1-5.256 24.756-2.526 10.013 4.833 17.555 16.226 18.34 27.707.484 7.1-1.382 17.179-13.029 24.913a8.614 8.614 0 0 0 9.529 14.352c14.257-9.466 21.8-24.206 20.687-40.44-1.2-17.637-12.472-34.535-28.038-42.047-13.811-6.666-28.733-5.3-42.018 3.854-21.545 14.841-24.88 36.243-9.912 63.611 9.384 17.157 6.34 31.57-9.048 42.842-15.18 11.119-29.371 3.27-36.971-6.887l-.111-.148c-8.8-11.89-10.64-29.219 2.878-39.335a8.614 8.614 0 0 0 -10.321-13.793c-22.289 16.677-19.934 45.1-6.4 63.379l.167.223c6.894 9.214 16.23 15.638 26.321 18.099z"/><path d="m448.753 478.851c-25.379-11.5-48.523-4.311-63.5 19.728-11.819 18.969-22.857 23.669-38.1 16.222-11.142-5.444-13.955-14.06-14.353-20.328-.7-11.1 5.52-23.26 15.136-29.579 5.945-3.906 15.646-7.229 28.1-.878a8.614 8.614 0 0 0 7.827-15.348c-15.246-7.773-31.788-7.107-45.387 1.828-14.774 9.707-23.965 27.819-22.869 45.069.972 15.3 9.489 27.633 23.983 34.715 23.507 11.484 43.79 3.885 60.286-22.59 10.34-16.6 24.392-21.021 41.766-13.148 17.14 7.767 17.267 23.984 12.149 35.591l-.075.168c-6.037 13.506-20.233 23.614-35.681 16.8a8.614 8.614 0 0 0 -6.951 15.763c25.471 11.232 49.079-4.773 58.36-25.533l.113-.256c4.643-10.529 5.655-21.819 2.846-31.817-3.303-11.758-11.483-20.894-23.65-26.407z"/><path d="m337.883 413.484c23.506 11.485 43.789 3.885 60.285-22.59 10.341-16.6 24.392-21.022 41.766-13.148 17.14 7.767 17.267 23.984 12.149 35.59l-.075.17c-6.038 13.505-20.233 23.613-35.682 16.8a8.614 8.614 0 0 0 -6.95 15.764c25.471 11.231 49.078-4.773 58.36-25.534l.113-.255c4.643-10.53 5.655-21.82 2.846-31.819-3.305-11.763-11.482-20.9-23.649-26.408-25.379-11.5-48.523-4.311-63.5 19.728-11.819 18.97-22.858 23.67-38.1 16.222-11.142-5.444-13.955-14.059-14.354-20.328-.7-11.1 5.519-23.259 15.137-29.579 5.944-3.906 15.645-7.229 28.1-.878a8.614 8.614 0 0 0 7.826-15.348c-15.246-7.774-31.788-7.107-45.387 1.829-14.774 9.707-23.965 27.819-22.869 45.068.972 15.305 9.489 27.632 23.984 34.716z"/><path d="m537.016 202.523c17.669.539 35.6-9.009 44.605-23.759a39.509 39.509 0 0 0 5.65-26.66q-8.458 2.461-16.874 4.936a23.008 23.008 0 0 1 -3.477 12.744c-5.8 9.487-17.877 15.87-29.379 15.52-6.411-.2-15.041-2.558-21.478-12.071q-8.752 2.642-17.006 5.15c8.051 14.853 21.853 23.65 37.959 24.14z"/><path d="m460.656 232.887c20.57-8.74 32.306-6.248 40.506 8.6 5.994 10.856 3.35 19.524.075 24.885-5.8 9.488-17.877 15.871-29.379 15.52-7.11-.216-16.959-3.067-23.508-15.42a8.614 8.614 0 1 0 -15.221 8.07c8.015 15.119 21.941 24.075 38.2 24.57 17.67.539 35.6-9.009 44.6-23.76 7.994-13.086 8.1-28.07.3-42.192-12.646-22.9-33.615-28.33-62.325-16.131-17.551 7.458-31.339 3.406-41.009-12.03q-8.4 2.64-16.825 5.3.6 1.134 1.259 2.261c14.184 23.999 37.26 31.404 63.327 20.327z"/><path d="m827.032 278.793c13.41 17.88 13.8 29.871 1.343 41.389-9.106 8.418-18.156 7.924-24.144 6.028-10.6-3.357-19.688-13.559-22.1-24.811-1.492-6.955-1.08-17.2 9.345-26.514a8.614 8.614 0 0 0 -11.476-12.848c-12.762 11.4-18.125 27.064-14.713 42.975 3.706 17.284 17.267 32.4 33.745 37.622 14.62 4.63 29.194 1.149 41.039-9.8 19.21-17.761 19.462-39.42.746-64.375-11.734-15.643-10.775-30.344 2.849-43.693a33.069 33.069 0 0 1 2.726-2.393q-4.892-7.273-9.692-14.273a50.417 50.417 0 0 0 -5.089 4.362c-19.905 19.495-21.573 43.673-4.579 66.331z"/><path d="m689.525 301.979c14.62 4.629 29.194 1.148 41.039-9.8 19.211-17.761 19.462-39.419.746-64.375-11.733-15.644-10.775-30.344 2.849-43.693 13.441-13.17 28.606-7.423 37.576 1.547l.13.131c10.408 10.514 14.7 27.4 2.758 39.343a8.614 8.614 0 1 0 12.182 12.182c19.684-19.684 13.3-47.482-2.7-63.645l-.2-.2c-8.138-8.138-18.3-13.165-28.634-14.163-12.162-1.173-23.634 3.147-33.175 12.5-19.9 19.5-21.57 43.678-4.576 66.336 13.41 17.881 13.8 29.872 1.343 41.388-9.106 8.419-18.155 7.925-24.144 6.029-10.6-3.357-19.688-13.559-22.1-24.81-1.491-6.956-1.081-17.2 9.345-26.516a8.613 8.613 0 0 0 -11.477-12.847c-12.762 11.4-18.124 27.065-14.712 42.975 3.711 17.281 17.272 32.401 33.75 37.618z"/><path d="m982.626 517.284c-22.235-16.792-46.394-14.857-66.282 5.308-15.7 15.912-27.5 18.074-40.732 7.462-9.675-7.757-10.529-16.78-9.541-22.983 1.749-10.98 10.491-21.481 21.26-25.535 6.657-2.506 16.851-3.618 27.607 5.312a8.614 8.614 0 0 0 11-13.255c-13.167-10.931-29.452-13.912-44.681-8.18-16.544 6.227-29.487 21.88-32.2 38.949-2.412 15.145 3.191 29.042 15.778 39.133 20.412 16.365 41.869 13.4 63.774-8.8 13.731-13.923 28.411-15.154 43.633-3.659 15.017 11.34 11.581 27.189 4.04 37.389l-.11.149c-8.855 11.85-24.923 18.6-38.5 8.559a8.614 8.614 0 0 0 -10.241 13.853c22.384 16.549 48.929 6.117 62.542-12.1l.166-.225c6.841-9.253 10.306-20.045 9.761-30.416-.641-12.207-6.614-22.911-17.274-30.961z"/><path d="m905.235 351.092c-16.545 6.227-29.487 21.879-32.2 38.949-2.411 15.144 3.192 29.042 15.778 39.132 20.412 16.366 41.868 13.4 63.774-8.805a44.179 44.179 0 0 1 10.34-7.989q-4.246-7.641-8.428-15.031a62.06 62.06 0 0 0 -14.178 10.922c-15.7 15.912-27.5 18.074-40.732 7.462-9.675-7.757-10.528-16.779-9.541-22.983 1.749-10.98 10.491-21.48 21.26-25.534 6.658-2.506 16.851-3.619 27.608 5.311a8.6 8.6 0 0 0 2.1 1.283c-5.233-9.025-10.212-17.491-14.789-25.192a43.22 43.22 0 0 0 -20.992 2.475z"/><path d="m961.646 462.806a8.614 8.614 0 0 0 -10.241 13.853c15.427 11.406 32.829 9.993 46.613 2.052q-3.8-7.643-7.766-15.349c-8.576 5.29-19.189 6.406-28.606-.556z"/></g><g fill="#2043b7" opacity=".5"><path d="m872.332 774.03c-103.476 29.062-674.741 42.513-711.563 36.383-42.632-7.1-83.931-41.178-129.025-50.168 32.946 34.929 81.594 73.609 81.594 73.609h810.042s63.166-86.12 91.96-153.8c-26.84 35.267-91.006 79.372-143.008 93.976z"/><path d="m923.38 836.354h-810.042a2.506 2.506 0 0 1 -1.556-.543c-.488-.388-49.166-39.193-81.857-73.85a2.5 2.5 0 0 1 2.307-4.168c22.592 4.5 44.287 15.237 65.267 25.615 21.839 10.8 42.467 21.007 63.68 24.54 17.577 2.923 165.678 1.367 330.279-5.028 198.219-7.7 336.8-19.107 380.2-31.3l.676 2.408-.676-2.408c53.9-15.138 116.784-60.354 141.7-93.086a2.5 2.5 0 0 1 4.29 2.493c-28.578 67.171-91.612 153.439-92.246 154.3a2.5 2.5 0 0 1 -2.022 1.027zm-809.164-5h807.89c6.589-9.1 55.162-76.889 83.738-136.428-32.291 33.88-88.943 69.184-132.836 81.512-59.915 16.827-264.649 26.945-381.356 31.479-164.888 6.4-313.484 7.927-331.294 4.962-21.945-3.653-43.871-14.5-65.076-24.989-18.118-8.963-36.777-18.19-55.873-23.29 29.891 30.462 69.179 62.237 74.807 66.754z"/></g><path d="m193.734 223.729a2.5 2.5 0 0 1 -.743-4.888l129.436-40.316a2.5 2.5 0 1 1 1.488 4.773l-129.436 40.317a2.506 2.506 0 0 1 -.745.114z" fill="#d3a32d"/></svg>