<svg height="1068.021" viewBox="0 0 1083.523 1068.021" width="1083.523" xmlns="http://www.w3.org/2000/svg"><g fill="#3054e5"><path d="m21.047 406.216c-6.119 73.033-4.469 148.405-3.228 160.542 1.061 10.382 31.352 297.048 41.225 308.435 9.872 11.386 100.326 49.92 100.326 49.92l-41.976-371.276s-38.406-31.403-41.859-40.183c-3.422-8.702-10.518-54.275-4.925-101.242l-49.563-6.195z"/><path d="m159.369 927.613c-.332 0-.665-.065-.979-.2-3.716-1.582-91.102-38.894-101.235-50.582-1.832-2.113-6.699-7.727-24.51-155.934-8.611-71.658-16.431-145.256-17.313-153.885-1.313-12.854-2.877-88.176 3.225-161.005.057-.678.388-1.304.916-1.732.53-.43 1.21-.622 1.886-.539l49.563 6.195c1.364.17 2.335 1.411 2.172 2.776-5.618 47.171 1.683 92.182 4.769 100.03 2.342 5.953 26.461 27.181 41.114 39.163.505.413.829 1.007.902 1.654l41.976 371.276c.1.884-.277 1.755-.991 2.286-.438.327-.964.495-1.493.495zm-136.045-518.593c-5.824 71.693-4.306 144.89-3.019 157.484.877 8.582 8.659 81.833 17.245 153.316 15.874 132.154 21.644 151.541 23.388 153.742 7.401 8.537 68.039 35.754 95.464 47.56l-41.379-365.997c-6.508-5.351-38.4-31.875-41.814-40.558-3.591-9.129-10.504-53.297-5.364-99.982z"/><path d="m971.307 615.39c-14.999 60.435-47.472 116.189-54.763 122.263-6.902 5.749-55.653 4.957-55.653 4.957l-180.612 304.218s98.617-3.975 116.04-14.479 140.951-224.175 155.421-250.601c7.905-14.437 62.794-116.083 69.626-152.842l-50.058-13.515z"/><path d="m680.279 1049.328c-.878 0-1.695-.461-2.147-1.22-.47-.787-.47-1.769-.002-2.557l180.612-304.218c.458-.771 1.313-1.192 2.19-1.224 19.857.322 49.744-.822 54.012-4.378 6.456-5.378 38.813-60.003 53.937-120.944.162-.651.58-1.211 1.159-1.552.581-.342 1.273-.433 1.919-.26l50.059 13.516c1.259.34 2.045 1.59 1.807 2.871-7.215 38.817-67.335 148.917-69.892 153.585-6.979 12.748-41.478 72.815-76.652 131.359-45.104 75.068-71.908 115.504-79.67 120.183-17.77 10.711-113.178 14.673-117.23 14.836-.033 0-.067.002-.101.002zm182.023-304.197-177.516 299.002c35.062-1.585 97.476-6.229 110.241-13.925 16.181-9.754 137.991-219.475 154.52-249.66 2.491-4.551 60.028-109.915 68.898-149.841l-45.336-12.24c-15.582 60.795-47.494 114.884-54.966 121.107-6.893 5.742-44.99 5.691-55.842 5.557z"/></g><path d="m70.61 412.412-49.563-6.196c-.814 9.716-1.489 19.473-2.048 29.118l49.542 11.336c.072-10.969.678-22.57 2.07-34.258z" fill="#2043b7"/><path d="m68.541 449.171c-.186 0-.373-.021-.558-.063l-49.542-11.336c-1.189-.272-2.009-1.364-1.938-2.582.582-10.052 1.273-19.87 2.053-29.183.057-.678.388-1.304.916-1.732.53-.43 1.21-.622 1.886-.539l49.563 6.195c1.364.17 2.335 1.411 2.172 2.776-1.284 10.776-1.975 22.209-2.052 33.979-.005.758-.354 1.473-.948 1.943-.446.354-.994.54-1.552.54zm-46.922-15.801 44.457 10.172c.156-9.972.75-19.687 1.769-28.956l-44.521-5.565c-.636 7.833-1.208 16.003-1.705 24.35z" fill="#2043b7"/><path d="m971.307 615.39c-3.699 14.903-8.461 29.518-13.645 43.177l52.583 3.985c5.465-13.399 9.555-25.227 11.119-33.646l-50.058-13.515z" fill="#2043b7"/><path d="m1010.247 665.053c-.063 0-.126-.002-.189-.007l-52.583-3.985c-.786-.06-1.498-.486-1.921-1.152-.424-.665-.508-1.491-.228-2.228 5.581-14.706 10.142-29.137 13.555-42.893.162-.651.58-1.211 1.159-1.552.581-.342 1.273-.436 1.919-.259l50.058 13.516c1.259.339 2.045 1.589 1.807 2.87-1.477 7.947-5.266 19.432-11.263 34.134-.386.945-1.305 1.556-2.313 1.556zm-49.073-8.727 47.441 3.596c4.933-12.238 8.231-22.043 9.829-29.215l-45.335-12.24c-3.133 12.215-7.14 24.925-11.936 37.859z" fill="#2043b7"/><path d="m88.98 421.479c8.735-9.067 15.652-115.764 21.832-127.127 11.386-20.935 196.752-159.476 219.989-163.072 23.238-3.596 443.665 44.92 465.339 55.349s179.127 281.575 181.813 302.522c1.146 8.933-31.801 130.63-28.274 137.419 3.527 6.79 74.712 26.453 83.571 22.563 8.858-3.889 46.548-172.349 47.747-180.8 2.643-18.628-189.943-371.528-218.006-386.893-28.064-15.365-528.333-81.944-549.176-78.835-20.842 3.11-280.819 220.239-290.013 237.031-4.777 8.724-27.311 161.95-19.772 169.686s76.215 21.224 84.95 12.157z" fill="#3054e5"/><path d="m1029.442 652.106c-10.93 0-33.121-5.787-40.635-7.838-11.475-3.131-38.472-11.01-41.347-16.546-2.045-3.938 2.106-23.57 15.62-80.569 6.02-25.393 12.843-54.173 12.393-57.684-1.186-9.245-38.625-78.441-83.459-154.251-50.056-84.641-88.115-142.081-96.959-146.337-9.175-4.415-102.123-17.558-231.289-32.703-122.439-14.356-222.415-24.001-232.583-22.428-9.747 1.508-56.35 32.172-113.329 74.568-55.874 41.575-99.969 78.26-104.846 87.228-2.506 4.606-5.522 29.428-8.44 53.432-5.035 41.424-8.715 68.97-13.787 74.235-2.467 2.56-7.598 3.764-16.15 3.788-.073 0-.149 0-.224 0-21.624 0-65.268-8.855-72.167-15.936-1.474-1.512-5.959-6.113 4.579-86.542 4.893-37.349 11.938-80.882 14.789-86.089 5.082-9.28 74.899-69.593 141.24-124.374 31.713-26.185 136.296-111.794 150.598-113.927 11.343-1.695 150.325 15.545 272.592 32.485 60.613 8.399 259.804 36.583 278.152 46.63 15.119 8.277 72.678 105.23 121.504 193.203 25.619 46.159 50.598 93.035 68.533 128.607 30.31 60.119 29.508 65.77 29.245 67.627-.619 4.357-10.319 48.494-21.049 92.354-21.381 87.404-25.966 89.417-28.169 90.384-1.086.477-2.75.684-4.813.684zm-77.493-26.624c1.605 1.927 14.6 7.576 38.876 14.153 22.805 6.18 38.109 8.334 41.256 7.271 1.452-1.51 7.311-12.533 25.952-88.965 10.475-42.947 19.902-85.83 20.488-89.96.798-7.223-36.212-83.242-97.394-193.456-60.827-109.574-107.67-184.504-119.338-190.894-27.948-15.301-528.385-81.455-547.605-78.553-8.397 1.253-67.936 46.6-148.152 112.839-73.204 60.449-136.025 115.591-140.038 122.921-1.926 3.518-8.339 39.752-14.039 82.978-7.007 53.143-8.1 80.346-6.074 83.821 4.839 4.703 44.551 14.365 68.483 14.366h.253c9.666-.027 12.06-1.734 12.563-2.257 4.292-4.455 8.993-43.13 12.426-71.37 3.764-30.969 6.249-50.139 9.011-55.217 6.178-11.359 57.817-52.81 106.254-88.85 45.102-33.56 102.426-73.468 115.549-75.499 12.709-1.971 130.164 10.235 233.93 22.403 100.003 11.726 220.996 27.447 232.875 33.163 14.775 7.11 79.584 115.306 99.095 148.298 39.671 67.079 82.633 144.605 84.114 156.159.539 4.201-4.394 25.337-12.487 59.474-7.198 30.365-17.036 71.86-15.996 77.176z" fill="#3054e5"/><path d="m103.379 522.742c13.185-13.575 108.971-21.596 119.784-8.246 10.812 13.349 38.319 410.068 31.351 420.67-6.968 10.601-97.195 8.982-113.823-1.948-16.629-10.93-50.496-396.9-37.312-410.475z" fill="#aef45d"/><path d="m207.18 944.816c-2.388 0-4.435-.024-5.998-.052-22.499-.393-52.2-3.106-61.864-9.459-1.742-1.145-5.368-3.528-11.839-42.443-3.728-22.419-7.829-53.691-11.858-90.438-6.456-58.872-12.166-126.352-15.273-180.506-5.398-94.078-.403-99.227 1.239-100.918 10.735-11.053 63.681-17.019 94.127-15.647 16.02.722 25.909 3.269 29.393 7.57 7.714 9.523 19.474 165.256 22.895 212.759 3.781 52.51 6.825 102.601 8.573 141.046 2.97 65.338.909 68.473.029 69.811-4.797 7.299-34.098 8.278-49.423 8.278zm-101.989-420.352c-4.387 5.774-3.016 79.346 8.168 204.434 11.205 125.326 23.165 197.74 28.729 202.246 6.973 4.582 31.319 8.134 59.182 8.621 30.073.524 48.675-2.628 51.097-5.89 2.656-7.158-1.482-98.837-9.451-209.205-8.432-116.776-17.356-202.562-21.704-208.615-.89-1.097-5.404-4.793-25.723-5.708-34.248-1.549-82.322 5.974-90.297 14.117z" fill="#aef45d"/><path d="m579.063 980.537c-2.56-17.025 180.38-307.182 193.69-312.147s100.279 28.047 105.051 43.531c7.175 23.281-184.323 349.08-206.635 353.516-14.321 2.848-89.546-67.875-92.106-84.9z" fill="#aef45d"/><path d="m670.207 1068.029c-2.937 0-8.269-1.58-19.631-9.566-25.595-17.989-71.812-63.101-73.985-77.553-.309-2.054-1.031-6.863 27.616-56.872 16.128-28.154 38.726-65.594 63.631-105.422 24.153-38.627 47.808-75.26 66.603-103.149 31.917-47.358 35.786-48.802 37.438-49.419 10.652-3.976 55.085 11.785 79.802 23.95 17.195 8.464 26.788 15.592 28.513 21.188.758 2.457 3.062 9.934-30.893 75.252-19.246 37.025-46.396 85.271-74.484 132.367-23.708 39.75-46.495 76.007-64.164 102.09-30.718 45.349-36.731 46.545-38.996 46.995-.412.082-.887.14-1.449.14zm-88.67-87.852c1.697 11.142 43.351 54.118 71.914 74.194 12.392 8.709 16.32 8.794 17.23 8.613 6.945-1.381 43.471-52.229 99.84-146.741 28.042-47.017 55.14-95.17 74.343-132.112 30.629-58.92 31.128-69.603 30.552-71.474-.461-1.495-3.693-7.223-25.943-18.174-28.667-14.11-68.365-26.55-75.846-23.751-6.176 3.234-50.96 69.606-101.888 151.073-62.671 100.253-90.686 152.362-90.202 158.371z" fill="#aef45d"/><path d="m851.893 114.837c21.393 13.757 173.7 298.22 221.411 389.064 3.469-14.509 7.191-32.03 7.692-35.567 2.643-18.628-189.944-371.528-218.006-386.893-28.063-15.366-528.332-81.945-549.175-78.836-9.382 1.4-67.219 46.166-128.825 96.504 57.475-29.04 122.933-60.499 138.957-61.655 29.981-2.163 502.452 60.99 527.946 77.383z" fill="#668bff"/><path d="m1073.303 506.401c-.92 0-1.776-.508-2.212-1.338-63.729-121.34-201.488-375.864-220.551-388.123-10.521-6.766-110.64-24.115-261.285-45.277-129.617-18.208-251.025-32.728-265.129-31.715-8.785.634-39.859 11.8-138.01 61.394-1.139.576-2.526.201-3.223-.869-.695-1.069-.474-2.491.514-3.298 43.415-35.474 118.038-95.252 130.039-97.042 11.359-1.681 150.331 15.545 272.593 32.485 60.612 8.399 259.803 36.583 278.151 46.63 15.118 8.277 72.678 105.23 121.504 193.203 25.619 46.16 50.598 93.035 68.532 128.607 30.311 60.119 29.509 65.77 29.246 67.627-.53 3.73-4.278 21.332-7.736 35.797-.242 1.014-1.088 1.771-2.121 1.899-.104.014-.208.02-.312.02zm-747.492-471.499c23.346 0 152.749 16.162 264.141 31.81 73.758 10.361 247.065 35.588 263.294 46.023 23.828 15.323 193.884 336.231 219.152 384.088 3.019-13.074 5.729-26.055 6.123-28.841.797-7.222-36.212-83.242-97.395-193.456-60.827-109.574-107.67-184.504-119.338-190.894-27.947-15.302-528.384-81.411-547.604-78.554-5.574.831-37.53 22.983-109.871 81.538 67.061-33.406 107.21-50.771 119.454-51.654.549-.04 1.235-.06 2.044-.06z" fill="#668bff"/></svg>